<svg width="330" height="169" viewBox="0 0 330 169" fill="none" xmlns="http://www.w3.org/2000/svg">
<g filter="url(#filter0_d_2_39)">
<path d="M158.364 120.114C155.4 119.962 150.688 119.886 144.228 119.886L128.952 120.114C131.916 118.138 133.398 115.022 133.398 110.766C133.398 108.942 132.904 103.926 131.916 95.718L131.46 92.184H108.432L107.064 95.718C103.416 105.066 101.592 111.108 101.592 113.844C101.592 116.656 102.466 118.746 104.214 120.114C99.806 119.962 95.664 119.886 91.788 119.886L79.704 120.114C81.756 118.062 83.656 115.364 85.404 112.02C87.076 108.676 89.85 102.33 93.726 92.982L112.65 46.128C113.562 43.772 114.018 42.138 114.018 41.226C114.018 40.694 113.942 40.238 113.79 39.858C113.714 39.478 113.6 39.212 113.448 39.06L113.334 38.946H146.052L145.938 39.06C145.862 39.136 145.748 39.25 145.596 39.402C145.52 39.554 145.406 39.782 145.254 40.086C145.178 40.314 145.102 40.618 145.026 40.998C144.95 41.378 144.912 41.796 144.912 42.252C144.912 42.632 145.064 44.038 145.368 46.47L151.524 93.096C152.816 102.748 153.842 109.17 154.602 112.362C155.438 115.478 156.692 118.062 158.364 120.114ZM130.092 81.012L126.672 52.74C126.14 49.016 125.874 46.204 125.874 44.304C125.342 46.356 124.43 49.168 123.138 52.74L112.536 81.012H130.092ZM241.541 73.032C241.541 79.112 240.895 84.66 239.603 89.676C238.311 94.692 236.791 98.682 235.043 101.646C233.295 104.61 231.167 107.27 228.659 109.626C226.227 111.906 224.175 113.502 222.503 114.414C220.907 115.326 219.235 116.124 217.487 116.808C211.863 119.088 203.845 120.228 193.433 120.228C191.077 120.228 187.733 120.152 183.401 120C179.069 119.924 176.181 119.886 174.737 119.886L163.565 120.114L164.819 118.176C166.263 115.896 167.365 113.122 168.125 109.854C168.885 106.51 170.101 98.53 171.773 85.914C169.341 85.914 167.213 86.142 165.389 86.598C163.641 86.978 162.463 87.358 161.855 87.738L160.943 88.308C161.399 86.788 161.855 84.28 162.311 80.784L163.109 73.032C164.477 74.552 167.783 75.312 173.027 75.312C174.927 60.112 175.877 51.068 175.877 48.18C175.877 45.14 175.459 42.632 174.623 40.656L173.825 38.718C176.333 38.87 179.981 38.946 184.769 38.946C186.745 38.946 189.671 38.908 193.547 38.832C197.423 38.68 200.539 38.604 202.895 38.604C207.379 38.604 211.331 38.87 214.751 39.402C218.247 39.858 221.743 40.846 225.239 42.366C228.735 43.81 231.623 45.748 233.903 48.18C236.183 50.612 238.007 53.956 239.375 58.212C240.819 62.392 241.541 67.332 241.541 73.032ZM204.947 88.308C203.579 86.712 200.159 85.914 194.687 85.914H190.925L188.189 108.258C189.937 108.942 192.369 109.284 195.485 109.284C203.769 109.284 209.583 106.548 212.927 101.076C218.323 95.376 221.021 85.078 221.021 70.182C221.021 63.19 219.615 58.022 216.803 54.678C213.991 51.258 208.937 49.548 201.641 49.548L195.485 49.89L192.293 75.312H196.169C198.601 75.312 200.729 75.122 202.553 74.742C204.377 74.362 205.593 73.982 206.201 73.602L207.113 73.032C206.657 74.704 206.201 77.288 205.745 80.784L204.947 88.308Z" fill="url(#paint0_linear_2_39)"/>
<path d="M277.405 44.3488C278.834 55.3639 269.999 65.5874 269.999 65.5874C269.999 65.5874 258.843 57.9533 257.407 46.9382C255.978 35.9097 264.82 25.6929 264.82 25.6929C264.82 25.6929 275.969 33.3337 277.405 44.3488ZM287.877 81.3721C283.208 91.4547 270.274 95.4126 270.274 95.4126C270.274 95.4126 264.907 83.0223 269.576 72.9397C274.245 62.8571 287.186 58.8925 287.186 58.8925C287.186 58.8925 292.552 71.2895 287.877 81.3721ZM282.376 116.826C273.467 123.487 260.198 120.844 260.198 120.844C260.198 120.844 261.379 107.394 270.287 100.732C279.196 94.0709 292.465 96.714 292.465 96.714C292.465 96.714 291.284 110.164 282.376 116.826ZM258.165 145.658C248.069 150.34 235.632 145.021 235.632 145.021C235.632 145.021 239.57 132.107 249.666 127.418C259.762 122.736 272.192 128.062 272.192 128.062C272.192 128.062 268.261 140.976 258.165 145.658ZM246.976 19.9103C255.093 27.5109 254.784 41.0013 254.784 41.0013C254.784 41.0013 241.301 42.182 233.183 34.5815C225.066 26.9809 225.375 13.4837 225.375 13.4837C225.375 13.4837 238.859 12.3098 246.976 19.9103Z" stroke="url(#paint1_linear_2_39)" stroke-width="8" stroke-linejoin="round"/>
<path d="M52.5951 44.3488C51.1663 55.3639 60.0011 65.5874 60.0011 65.5874C60.0011 65.5874 71.1571 57.9533 72.5927 46.9382C74.0216 35.9097 65.18 25.6929 65.18 25.6929C65.18 25.6929 54.0307 33.3337 52.5951 44.3488ZM42.1234 81.3721C46.7924 91.4547 59.7261 95.4126 59.7261 95.4126C59.7261 95.4126 65.0928 83.0223 60.4238 72.9397C55.7548 62.8571 42.8144 58.8925 42.8144 58.8925C42.8144 58.8925 37.4477 71.2895 42.1234 81.3721ZM47.6243 116.826C56.5329 123.487 69.802 120.844 69.802 120.844C69.802 120.844 68.6214 107.394 59.7127 100.732C50.804 94.0709 37.5349 96.714 37.5349 96.714C37.5349 96.714 38.7156 110.164 47.6243 116.826ZM71.8347 145.658C81.9307 150.34 94.3679 145.021 94.3679 145.021C94.3679 145.021 90.4302 132.107 80.3341 127.418C70.2381 122.736 57.8075 128.062 57.8075 128.062C57.8075 128.062 61.7386 140.976 71.8347 145.658ZM83.0242 19.9103C74.9071 27.5109 75.2157 41.0013 75.2157 41.0013C75.2157 41.0013 88.6994 42.182 96.8165 34.5815C104.934 26.9809 104.625 13.4837 104.625 13.4837C104.625 13.4837 91.1412 12.3098 83.0242 19.9103Z" stroke="url(#paint2_linear_2_39)" stroke-width="8" stroke-linejoin="round"/>
</g>
<defs>
<filter id="filter0_d_2_39" x="0" y="0" width="330" height="169" filterUnits="userSpaceOnUse" color-interpolation-filters="sRGB">
<feFlood flood-opacity="0" result="BackgroundImageFix"/>
<feColorMatrix in="SourceAlpha" type="matrix" values="0 0 0 0 0 0 0 0 0 0 0 0 0 0 0 0 0 0 127 0" result="hardAlpha"/>
<feOffset dy="4"/>
<feGaussianBlur stdDeviation="2"/>
<feComposite in2="hardAlpha" operator="out"/>
<feColorMatrix type="matrix" values="0 0 0 0 0 0 0 0 0 0 0 0 0 0 0 0 0 0 0.25 0"/>
<feBlend mode="normal" in2="BackgroundImageFix" result="effect1_dropShadow_2_39"/>
<feBlend mode="normal" in="SourceGraphic" in2="effect1_dropShadow_2_39" result="shape"/>
</filter>
<linearGradient id="paint0_linear_2_39" x1="166" y1="13" x2="166" y2="161" gradientUnits="userSpaceOnUse">
<stop stop-color="#EBD189"/>
<stop offset="1" stop-color="#E0A350"/>
</linearGradient>
<linearGradient id="paint1_linear_2_39" x1="258.919" y1="13.4184" x2="258.919" y2="147.586" gradientUnits="userSpaceOnUse">
<stop stop-color="#00BC5E"/>
<stop offset="1" stop-color="#00562B"/>
</linearGradient>
<linearGradient id="paint2_linear_2_39" x1="71.0807" y1="13.4184" x2="71.0807" y2="147.586" gradientUnits="userSpaceOnUse">
<stop stop-color="#00BC5E"/>
<stop offset="1" stop-color="#00562B"/>
</linearGradient>
</defs>
</svg>
