<svg width="128" height="133" viewBox="0 0 128 133" fill="none" xmlns="http://www.w3.org/2000/svg">
<g filter="url(#filter0_d_1_14)">
<path d="M7.58814 35.25L10.0881 82.75L16.0881 54.25L23.5881 48.25L53.0881 42.75L59.0881 33.75L63.5881 30.75L109.088 23.75V20.25L104.588 17.75L59.0881 23.75L49.5881 13.75L44.0881 10.75L19.5881 12.75L14.5881 16.25L7.58814 35.25Z" fill="#9D7445" stroke="black"/>
<path d="M14.9431 59.9432L11.1982 116.586C11.1264 117.671 11.376 118.754 11.9157 119.698C12.6647 121.009 13.9162 121.957 15.3806 122.323L17.2682 122.795C18.4653 123.094 19.7153 123.113 20.9207 122.848L105.8 104.251C107.294 103.924 108.663 103.175 109.745 102.094L110.611 101.227C111.891 99.9469 112.699 98.2707 112.903 96.4721L120.296 31.3248C120.483 29.6742 120.017 28.0158 118.997 26.7045C117.793 25.1558 115.941 24.25 113.979 24.25H112.588L65.276 30.6808C62.6557 31.0369 60.3807 32.6649 59.1981 35.0302L59.0547 35.3169C58.745 35.9364 58.3561 36.5129 57.898 37.0322L52.9763 42.61C51.7552 43.994 50.0932 44.9131 48.2718 45.2117L23.954 49.1982C21.8037 49.5507 19.8903 50.7651 18.6558 52.5606L16.3334 55.9388C15.5183 57.1243 15.038 58.5077 14.9431 59.9432Z" fill="#FFD27E"/>
<g clip-path="url(#paint0_diamond_1_14_clip_path)" data-figma-skip-parse="true"><g transform="matrix(-0.0665 0.051 -0.0564091 -0.073553 117.088 26.75)"><rect x="0" y="0" width="1721.14" height="864.203" fill="url(#paint0_diamond_1_14)" opacity="0.5" shape-rendering="crispEdges"/><rect x="0" y="0" width="1721.14" height="864.203" transform="scale(1 -1)" fill="url(#paint0_diamond_1_14)" opacity="0.5" shape-rendering="crispEdges"/><rect x="0" y="0" width="1721.14" height="864.203" transform="scale(-1 1)" fill="url(#paint0_diamond_1_14)" opacity="0.5" shape-rendering="crispEdges"/><rect x="0" y="0" width="1721.14" height="864.203" transform="scale(-1)" fill="url(#paint0_diamond_1_14)" opacity="0.5" shape-rendering="crispEdges"/></g></g><path d="M14.9431 59.9432L11.1982 116.586C11.1264 117.671 11.376 118.754 11.9157 119.698C12.6647 121.009 13.9162 121.957 15.3806 122.323L17.2682 122.795C18.4653 123.094 19.7153 123.113 20.9207 122.848L105.8 104.251C107.294 103.924 108.663 103.175 109.745 102.094L110.611 101.227C111.891 99.9469 112.699 98.2707 112.903 96.4721L120.296 31.3248C120.483 29.6742 120.017 28.0158 118.997 26.7045C117.793 25.1558 115.941 24.25 113.979 24.25H112.588L65.276 30.6808C62.6557 31.0369 60.3807 32.6649 59.1981 35.0302L59.0547 35.3169C58.745 35.9364 58.3561 36.5129 57.898 37.0322L52.9763 42.61C51.7552 43.994 50.0932 44.9131 48.2718 45.2117L23.954 49.1982C21.8037 49.5507 19.8903 50.7651 18.6558 52.5606L16.3334 55.9388C15.5183 57.1243 15.038 58.5077 14.9431 59.9432Z" data-figma-gradient-fill="{&#34;type&#34;:&#34;GRADIENT_DIAMOND&#34;,&#34;stops&#34;:[{&#34;color&#34;:{&#34;r&#34;:1.0,&#34;g&#34;:1.0,&#34;b&#34;:1.0,&#34;a&#34;:1.0},&#34;position&#34;:0.0},{&#34;color&#34;:{&#34;r&#34;:1.0,&#34;g&#34;:1.0,&#34;b&#34;:1.0,&#34;a&#34;:0.0},&#34;position&#34;:1.0}],&#34;stopsVar&#34;:[{&#34;color&#34;:{&#34;r&#34;:1.0,&#34;g&#34;:1.0,&#34;b&#34;:1.0,&#34;a&#34;:1.0},&#34;position&#34;:0.0},{&#34;color&#34;:{&#34;r&#34;:1.0,&#34;g&#34;:1.0,&#34;b&#34;:1.0,&#34;a&#34;:0.0},&#34;position&#34;:1.0}],&#34;transform&#34;:{&#34;m00&#34;:-133.0,&#34;m01&#34;:-112.81816864013672,&#34;m02&#34;:239.99722290039062,&#34;m10&#34;:101.99999237060547,&#34;m11&#34;:-147.10604858398438,&#34;m12&#34;:49.303031921386719},&#34;opacity&#34;:0.50,&#34;blendMode&#34;:&#34;NORMAL&#34;,&#34;visible&#34;:true}"/>
<path d="M14.9431 59.9432L11.1982 116.586C11.1264 117.671 11.376 118.754 11.9157 119.698C12.6647 121.009 13.9162 121.957 15.3806 122.323L17.2682 122.795C18.4653 123.094 19.7153 123.113 20.9207 122.848L105.8 104.251C107.294 103.924 108.663 103.175 109.745 102.094L110.611 101.227C111.891 99.9469 112.699 98.2707 112.903 96.4721L120.296 31.3248C120.483 29.6742 120.017 28.0158 118.997 26.7045C117.793 25.1558 115.941 24.25 113.979 24.25H112.588L65.276 30.6808C62.6557 31.0369 60.3807 32.6649 59.1981 35.0302L59.0547 35.3169C58.745 35.9364 58.3561 36.5129 57.898 37.0322L52.9763 42.61C51.7552 43.994 50.0932 44.9131 48.2718 45.2117L23.954 49.1982C21.8037 49.5507 19.8903 50.7651 18.6558 52.5606L16.3334 55.9388C15.5183 57.1243 15.038 58.5077 14.9431 59.9432Z" stroke="black"/>
<path d="M10.0881 119.75L7.63871 34.9995C7.60539 33.8468 7.82167 32.7005 8.27272 31.6392L14.2001 17.6924C15.3613 14.9602 17.94 13.0957 20.8984 12.8491L42.1869 11.0751C44.6483 10.87 47.0664 11.8133 48.7387 13.631L54.8205 20.2417C56.5587 22.131 59.0981 23.0714 61.6476 22.7698L102.092 17.9861C103.394 17.8321 104.713 18.0625 105.886 18.6491L106.872 19.1418C107.657 19.5345 108.278 20.1929 108.624 20.9999C109.209 22.365 110.551 23.25 112.036 23.25H117.088M10.0881 119.75L15.1427 122.109C16.7291 122.849 18.5145 123.049 20.2252 122.677L106.426 103.937C108.454 103.496 110.232 102.285 111.383 100.558L111.545 100.315C112.231 99.2858 112.669 98.1112 112.825 96.8837L121.095 31.6401C121.406 29.1862 120.564 26.7263 118.815 24.9772L117.088 23.25M10.0881 119.75L14.8849 58.3518C15.017 56.6611 15.6829 55.0561 16.7865 53.7686L19.181 50.975C20.4124 49.5383 22.1132 48.5847 23.9812 48.2834L48.7241 44.2926C50.8734 43.9459 52.7885 42.7383 54.0278 40.9483L59.0761 33.6563C60.3577 31.8051 62.3601 30.5797 64.5917 30.2808L117.088 23.25" stroke="black" stroke-width="4"/>
<path d="M23.2219 78.5526L16.4761 47.4833L6.1933 28.2752L96.4614 1.74469L100.306 7.29978L102.151 11.1257L107.442 11.517L112.938 23.5191L116.395 34.3163L118.575 40.8024L99.5928 45.7236L86.3775 58.9774L30.9139 68.0528L23.2219 78.5526Z" fill="url(#paint1_linear_1_14)"/>
<path d="M102.151 11.1257L100.306 7.29978L96.4614 1.74469L6.1933 28.2752L16.4761 47.4833L23.2219 78.5526L30.9139 68.0528M102.151 11.1257L21.0073 29.3707L30.9139 68.0528M102.151 11.1257L107.442 11.517L112.938 23.5191L116.395 34.3163L118.575 40.8024L99.5928 45.7236L86.3775 58.9774L30.9139 68.0528" stroke="black" stroke-width="3"/>
<path d="M109.245 22.45C109.453 22.9353 109.93 23.25 110.459 23.25H117.088M117.088 23.25L118.815 24.9772C120.564 26.7263 121.406 29.1862 121.095 31.6401L112.825 96.8837C112.669 98.1112 112.231 99.2858 111.545 100.315L111.383 100.558C110.232 102.285 108.454 103.496 106.426 103.937L20.2252 122.677C18.5145 123.049 16.7291 122.849 15.1427 122.109L10.0881 119.75M117.088 23.25L64.5917 30.2808C62.3601 30.5797 60.3577 31.8051 59.0761 33.6563L54.0278 40.9483C52.7885 42.7383 50.8734 43.9459 48.7241 44.2926L23.9812 48.2834C22.1132 48.5847 20.4124 49.5383 19.181 50.975L16.7865 53.7686C15.6829 55.0561 15.017 56.6611 14.8849 58.3518L10.0881 119.75M10.0881 119.75L8.61047 68.6224" stroke="black" stroke-width="4"/>
<path d="M14.9431 59.9432L11.1982 116.586C11.1264 117.671 11.376 118.754 11.9157 119.698C12.6647 121.009 13.9162 121.957 15.3806 122.323L17.2682 122.795C18.4653 123.094 19.7153 123.113 20.9207 122.848L105.8 104.251C107.294 103.924 108.663 103.175 109.745 102.094L110.611 101.227C111.891 99.9469 112.699 98.2707 112.903 96.4721L120.296 31.3248C120.483 29.6742 120.017 28.0158 118.997 26.7045C117.793 25.1558 115.941 24.25 113.979 24.25H112.588L65.276 30.6808C62.6557 31.0369 60.3807 32.6649 59.1981 35.0302L59.0547 35.3169C58.745 35.9364 58.3561 36.5129 57.898 37.0322L52.9763 42.61C51.7552 43.994 50.0932 44.9131 48.2718 45.2117L23.954 49.1982C21.8037 49.5507 19.8903 50.7651 18.6558 52.5606L16.3334 55.9388C15.5183 57.1243 15.038 58.5077 14.9431 59.9432Z" fill="#FFD27E"/>
<g clip-path="url(#paint2_diamond_1_14_clip_path)" data-figma-skip-parse="true"><g transform="matrix(-0.0665 0.051 -0.0564091 -0.073553 117.088 26.75)"><rect x="0" y="0" width="1721.14" height="864.203" fill="url(#paint2_diamond_1_14)" opacity="0.5" shape-rendering="crispEdges"/><rect x="0" y="0" width="1721.14" height="864.203" transform="scale(1 -1)" fill="url(#paint2_diamond_1_14)" opacity="0.5" shape-rendering="crispEdges"/><rect x="0" y="0" width="1721.14" height="864.203" transform="scale(-1 1)" fill="url(#paint2_diamond_1_14)" opacity="0.5" shape-rendering="crispEdges"/><rect x="0" y="0" width="1721.14" height="864.203" transform="scale(-1)" fill="url(#paint2_diamond_1_14)" opacity="0.5" shape-rendering="crispEdges"/></g></g><path d="M14.9431 59.9432L11.1982 116.586C11.1264 117.671 11.376 118.754 11.9157 119.698C12.6647 121.009 13.9162 121.957 15.3806 122.323L17.2682 122.795C18.4653 123.094 19.7153 123.113 20.9207 122.848L105.8 104.251C107.294 103.924 108.663 103.175 109.745 102.094L110.611 101.227C111.891 99.9469 112.699 98.2707 112.903 96.4721L120.296 31.3248C120.483 29.6742 120.017 28.0158 118.997 26.7045C117.793 25.1558 115.941 24.25 113.979 24.25H112.588L65.276 30.6808C62.6557 31.0369 60.3807 32.6649 59.1981 35.0302L59.0547 35.3169C58.745 35.9364 58.3561 36.5129 57.898 37.0322L52.9763 42.61C51.7552 43.994 50.0932 44.9131 48.2718 45.2117L23.954 49.1982C21.8037 49.5507 19.8903 50.7651 18.6558 52.5606L16.3334 55.9388C15.5183 57.1243 15.038 58.5077 14.9431 59.9432Z" data-figma-gradient-fill="{&#34;type&#34;:&#34;GRADIENT_DIAMOND&#34;,&#34;stops&#34;:[{&#34;color&#34;:{&#34;r&#34;:1.0,&#34;g&#34;:1.0,&#34;b&#34;:1.0,&#34;a&#34;:1.0},&#34;position&#34;:0.0},{&#34;color&#34;:{&#34;r&#34;:1.0,&#34;g&#34;:1.0,&#34;b&#34;:1.0,&#34;a&#34;:0.0},&#34;position&#34;:1.0}],&#34;stopsVar&#34;:[{&#34;color&#34;:{&#34;r&#34;:1.0,&#34;g&#34;:1.0,&#34;b&#34;:1.0,&#34;a&#34;:1.0},&#34;position&#34;:0.0},{&#34;color&#34;:{&#34;r&#34;:1.0,&#34;g&#34;:1.0,&#34;b&#34;:1.0,&#34;a&#34;:0.0},&#34;position&#34;:1.0}],&#34;transform&#34;:{&#34;m00&#34;:-133.0,&#34;m01&#34;:-112.81816864013672,&#34;m02&#34;:239.99722290039062,&#34;m10&#34;:101.99999237060547,&#34;m11&#34;:-147.10604858398438,&#34;m12&#34;:49.303031921386719},&#34;opacity&#34;:0.50,&#34;blendMode&#34;:&#34;NORMAL&#34;,&#34;visible&#34;:true}"/>
<path d="M14.9431 59.9432L11.1982 116.586C11.1264 117.671 11.376 118.754 11.9157 119.698C12.6647 121.009 13.9162 121.957 15.3806 122.323L17.2682 122.795C18.4653 123.094 19.7153 123.113 20.9207 122.848L105.8 104.251C107.294 103.924 108.663 103.175 109.745 102.094L110.611 101.227C111.891 99.9469 112.699 98.2707 112.903 96.4721L120.296 31.3248C120.483 29.6742 120.017 28.0158 118.997 26.7045C117.793 25.1558 115.941 24.25 113.979 24.25H112.588L65.276 30.6808C62.6557 31.0369 60.3807 32.6649 59.1981 35.0302L59.0547 35.3169C58.745 35.9364 58.3561 36.5129 57.898 37.0322L52.9763 42.61C51.7552 43.994 50.0932 44.9131 48.2718 45.2117L23.954 49.1982C21.8037 49.5507 19.8903 50.7651 18.6558 52.5606L16.3334 55.9388C15.5183 57.1243 15.038 58.5077 14.9431 59.9432Z" stroke="black"/>
</g>
<defs>
<filter id="filter0_d_1_14" x="0" y="0" width="127.159" height="132.859" filterUnits="userSpaceOnUse" color-interpolation-filters="sRGB">
<feFlood flood-opacity="0" result="BackgroundImageFix"/>
<feColorMatrix in="SourceAlpha" type="matrix" values="0 0 0 0 0 0 0 0 0 0 0 0 0 0 0 0 0 0 127 0" result="hardAlpha"/>
<feOffset dy="4"/>
<feGaussianBlur stdDeviation="2"/>
<feComposite in2="hardAlpha" operator="out"/>
<feColorMatrix type="matrix" values="0 0 0 0 0 0 0 0 0 0 0 0 0 0 0 0 0 0 0.25 0"/>
<feBlend mode="normal" in2="BackgroundImageFix" result="effect1_dropShadow_1_14"/>
<feBlend mode="normal" in="SourceGraphic" in2="effect1_dropShadow_1_14" result="shape"/>
</filter>
<clipPath id="paint0_diamond_1_14_clip_path"><path d="M14.9431 59.9432L11.1982 116.586C11.1264 117.671 11.376 118.754 11.9157 119.698C12.6647 121.009 13.9162 121.957 15.3806 122.323L17.2682 122.795C18.4653 123.094 19.7153 123.113 20.9207 122.848L105.8 104.251C107.294 103.924 108.663 103.175 109.745 102.094L110.611 101.227C111.891 99.9469 112.699 98.2707 112.903 96.4721L120.296 31.3248C120.483 29.6742 120.017 28.0158 118.997 26.7045C117.793 25.1558 115.941 24.25 113.979 24.25H112.588L65.276 30.6808C62.6557 31.0369 60.3807 32.6649 59.1981 35.0302L59.0547 35.3169C58.745 35.9364 58.3561 36.5129 57.898 37.0322L52.9763 42.61C51.7552 43.994 50.0932 44.9131 48.2718 45.2117L23.954 49.1982C21.8037 49.5507 19.8903 50.7651 18.6558 52.5606L16.3334 55.9388C15.5183 57.1243 15.038 58.5077 14.9431 59.9432Z"/></clipPath><clipPath id="paint2_diamond_1_14_clip_path"><path d="M14.9431 59.9432L11.1982 116.586C11.1264 117.671 11.376 118.754 11.9157 119.698C12.6647 121.009 13.9162 121.957 15.3806 122.323L17.2682 122.795C18.4653 123.094 19.7153 123.113 20.9207 122.848L105.8 104.251C107.294 103.924 108.663 103.175 109.745 102.094L110.611 101.227C111.891 99.9469 112.699 98.2707 112.903 96.4721L120.296 31.3248C120.483 29.6742 120.017 28.0158 118.997 26.7045C117.793 25.1558 115.941 24.25 113.979 24.25H112.588L65.276 30.6808C62.6557 31.0369 60.3807 32.6649 59.1981 35.0302L59.0547 35.3169C58.745 35.9364 58.3561 36.5129 57.898 37.0322L52.9763 42.61C51.7552 43.994 50.0932 44.9131 48.2718 45.2117L23.954 49.1982C21.8037 49.5507 19.8903 50.7651 18.6558 52.5606L16.3334 55.9388C15.5183 57.1243 15.038 58.5077 14.9431 59.9432Z"/></clipPath><linearGradient id="paint0_diamond_1_14" x1="0" y1="0" x2="500" y2="500" gradientUnits="userSpaceOnUse">
<stop stop-color="white"/>
<stop offset="1" stop-color="white" stop-opacity="0"/>
</linearGradient>
<linearGradient id="paint1_linear_1_14" x1="62.8837" y1="9.80316" x2="78.0724" y2="56.2552" gradientUnits="userSpaceOnUse">
<stop stop-color="white"/>
<stop offset="1" stop-color="#C6C6C6"/>
</linearGradient>
<linearGradient id="paint2_diamond_1_14" x1="0" y1="0" x2="500" y2="500" gradientUnits="userSpaceOnUse">
<stop stop-color="white"/>
<stop offset="1" stop-color="white" stop-opacity="0"/>
</linearGradient>
</defs>
</svg>
