<svg width="18" height="14" viewBox="0 0 18 14" fill="none" xmlns="http://www.w3.org/2000/svg">
<g clip-path="url(#clip0_62_4426)">
<path d="M16 0.5H2C1.46957 0.5 0.960859 0.710714 0.585786 1.08579C0.210714 1.46086 0 1.96957 0 2.5L0 5H18V2.5C18 1.96957 17.7893 1.46086 17.4142 1.08579C17.0391 0.710714 16.5304 0.5 16 0.5Z" fill="#CC212D"/>
<path d="M7.7115 9H10.304L9.008 8.058L7.7115 9ZM9.505 6.5295H11.1125L9.812 7.474L10.3075 9H18V5H9.008L9.505 6.5295ZM8.204 7.474L6.9035 6.5295H8.511L9.008 5H0V9H7.708L8.204 7.474Z" fill="#FBD116"/>
<path d="M10.3085 9.003L10.304 9H7.711L7.7065 9.003L7.708 9H0V11.5C0 12.0304 0.210714 12.5391 0.585786 12.9142C0.960859 13.2893 1.46957 13.5 2 13.5H16C16.5304 13.5 17.0391 13.2893 17.4142 12.9142C17.7893 12.5391 18 12.0304 18 11.5V9H10.3075L10.3085 9.003Z" fill="#288541"/>
<path d="M6.9035 6.5295L8.204 7.474L7.708 9L7.707 9.003L7.7115 9L9.008 8.058L10.304 9L10.3085 9.003L10.3075 9L9.812 7.474L11.1125 6.5295H9.505L9.008 5L8.511 6.5295H6.9035Z" fill="black"/>
</g>
<defs>
<clipPath id="clip0_62_4426">
<rect width="18" height="14" fill="white"/>
</clipPath>
</defs>
</svg>
