<svg width="142" height="142" viewBox="0 0 142 142" fill="none" xmlns="http://www.w3.org/2000/svg">
<path d="M27.32 142H21.656V108.448H30.488L40.616 129.52L50.744 108.448H59.528V142H53.864V115.792L42.152 139.072H38.984L27.32 115.792V142ZM73.4671 142H68.0911V116.464H73.4671V142ZM68.4271 111.376C67.7551 110.704 67.4191 109.904 67.4191 108.976C67.4191 108.048 67.7551 107.248 68.4271 106.576C69.0991 105.904 69.8991 105.568 70.8271 105.568C71.7551 105.568 72.5551 105.904 73.2271 106.576C73.8991 107.248 74.2351 108.048 74.2351 108.976C74.2351 109.904 73.8991 110.704 73.2271 111.376C72.5551 112.048 71.7551 112.384 70.8271 112.384C69.8991 112.384 69.0991 112.048 68.4271 111.376ZM85.343 116.464L90.815 124.864L96.479 116.464H102.863L93.935 128.944L103.247 142H96.623L90.527 133.504L84.575 142H78.287L87.359 128.992L78.767 116.464H85.343ZM121.421 121.504C118.765 121.504 116.765 122.368 115.421 124.096C114.077 125.824 113.405 128.144 113.405 131.056V142H108.029V116.464H113.405V121.6C114.269 120 115.437 118.688 116.909 117.664C118.413 116.64 119.997 116.112 121.661 116.08L121.709 121.504C121.613 121.504 121.517 121.504 121.421 121.504Z" fill="white"/>
<circle cx="70.5577" cy="108.87" r="3.55765" fill="white"/>
<rect x="72.6923" y="97.723" width="1.42306" height="10.9101" fill="white"/>
<path d="M72.6821 98.4315L72.7104 97.196C72.7104 97.196 74.2745 96.8007 75.1637 97.3539C76.0832 97.926 76.5997 98.6284 76.9526 99.7035C77.3168 100.813 76.2655 102.888 76.2655 102.888C76.2655 102.888 76.3714 102.217 76.2982 101.46C76.2567 101.031 76.2503 100.78 76.1182 100.376C75.8954 99.6964 75.6887 99.2574 75.1288 98.8777C74.3706 98.3634 72.6821 98.4315 72.6821 98.4315Z" fill="white"/>
<path d="M92 78.8337C97.3446 89.725 104.091 83.8818 106 78.8337V47H92V78.8337Z" fill="white"/>
<path d="M92 6.04291C97.7945 -4.84583 104.047 1.40237 106 6.04291V25H92V6.04291Z" fill="white"/>
<path d="M63.2335 46.0739H76.5929L76.2893 4.50032C70.7625 -3.62044 65.4601 1.06114 63.2335 4.50032V46.0739Z" fill="white"/>
<path d="M61.1082 66.7089C48.2346 58.6977 55.7442 51.435 61.1082 48.805H79.6291C92.0169 56.088 84.7907 63.7755 79.6291 66.7089H61.1082Z" fill="white"/>
<path d="M63.5371 69.1366H76.5929V79.7576C71.3698 87.4166 65.3589 82.9944 63.5371 79.7576V69.1366Z" fill="white"/>
<path d="M90.8632 45.1635C78.7183 37.395 85.8028 30.2941 90.8632 27.563H107.562C119.222 34.6032 112.42 42.2301 107.562 45.1635H90.8632Z" fill="white"/>
<path d="M34.4251 78.7707C38.8948 87.9159 45.2993 83.1055 47.1116 79.0732V38.5477H34.4251V78.7707Z" fill="white"/>
<path d="M31.4045 17.6801C19.8054 25.6642 26.5715 33.3056 31.4045 36.1282H49.5281C63.0604 28.1441 55.1666 20.5027 49.5281 17.6801H31.4045Z" fill="white"/>
<path d="M34.123 4.67563V15.5631H47.4137V4.67563C41.8558 -3.79238 36.2374 1.14729 34.123 4.67563Z" fill="white"/>
</svg>
