<svg width="705" height="403" viewBox="0 0 705 403" fill="none" xmlns="http://www.w3.org/2000/svg">
<g filter="url(#filter0_d_109_359)">
<path d="M291.547 35.8164C296.986 35.3622 312.657 36.2918 318.531 36.5291C336.018 37.155 353.497 38.0177 370.963 39.116C372.762 92.1296 367.879 146.701 367.254 199.808C366.924 227.777 367.166 255.425 367.36 283.384L367.426 376.764C343.497 377.846 318.412 378.018 294.44 378.366C268.806 377.908 243.189 376.746 217.619 374.88L215.414 287.639C214.623 261.018 213.543 234.059 214.119 207.46C215.148 159.97 217.398 112.484 218.085 64.9799C218.203 56.7957 218.478 48.4473 218.076 40.2816C224.626 39.4069 233.704 39.0689 240.518 38.5948C257.509 37.3491 274.521 36.423 291.547 35.8164ZM244.873 255.791L247.426 345.634L261.473 345.467C285.802 344.842 310.134 344.375 334.47 344.067L333.466 283.902C333.299 274.411 332.846 263.292 333.119 253.856L319.037 254.151C295.173 254.699 268.49 255.827 244.873 255.791Z" fill="black"/>
</g>
<g filter="url(#filter1_d_109_359)">
<path d="M26.6889 34.3876C51.1087 35.2653 75.4603 37.6885 99.9066 37.0516C110.015 36.7879 120.149 36.6523 130.263 36.4116C153.213 35.8252 176.168 35.3851 199.125 35.0919C199.056 41.1809 198.661 47.3385 198.375 53.4341C196.488 93.5558 193.39 133.636 191.687 173.761C191.341 181.906 192.164 190.778 192.266 198.978C192.496 217.552 193.714 236.252 193.762 254.819L142.36 253.312C138.783 253.201 134.968 253.21 131.417 252.969C108.398 251.404 86.0247 253.59 63.0628 254.921C63.12 258.744 63.4434 263.094 63.6457 266.953C98.4627 278.446 133.322 288.624 168.964 297.194C176.618 299.034 184.282 301.072 191.903 303.049C194.816 326.716 191.105 351.251 188.899 374.787C130.968 377.085 80.5492 379.268 22.1896 376.055C22.1377 363.726 21.9555 352.233 22.154 339.837C27.6114 339.903 34.7253 340.665 40.3693 341.017L73.9188 342.791C104.346 344.283 127.829 344.441 158.189 343.266C158.16 337.83 158.177 332.389 158.241 326.953C138.896 320.283 119.373 314.141 99.6932 308.536C77.2443 302.3 53.0365 296.75 30.3417 291.033C29.9713 254.287 32.5181 217.687 32.8234 181.001C33.1459 142.335 29.1688 102.839 28.1319 64.1326C27.8732 54.4676 27.4306 43.9861 26.6889 34.3876Z" fill="black"/>
</g>
<g filter="url(#filter2_d_109_359)">
<path d="M452.933 37.5802L459.923 37.2968L458.221 151.871C458.014 166.371 457.675 180.906 457.653 195.407C457.57 247.095 463.922 298.502 464.468 350.261C476.368 349.57 493.873 347.311 505.58 344.842L504.727 262.321C503.917 220.616 502.861 178.382 503.711 136.683C504.353 105.146 507.3 71.1961 509.826 39.5817C519.214 39.9937 529.007 39.6609 538.418 39.337C537.692 71.6499 536.196 104.556 535.052 136.917C534.436 149.078 534.203 161.414 533.772 173.599C531.387 240.839 537.08 308.036 535.567 375.337C510.283 376.495 484.34 380.351 458.929 380.1C440.526 379.92 421.538 377.129 403.122 375.954C397.46 375.593 390.245 375.012 384.728 373.986C384.614 356.868 385.987 335.598 386.589 318.241L388.952 235.888C389.335 221.629 390.069 207.09 390.193 192.866C390.377 172.196 389.33 151.021 388.507 130.323L385.076 39.3295C391.002 39.0011 398.037 39.0914 404.086 38.9351L452.933 37.5802Z" fill="black"/>
</g>
<g filter="url(#filter3_d_109_359)">
<path d="M556.671 37.3777C569.728 37.3773 584.308 39.116 597.286 39.0623C613.502 38.9954 630.273 38.031 646.573 37.6687L642.455 186.124L640.854 244.633C640.735 249.001 640.691 253.438 640.497 257.797C639.208 286.401 641.417 314.817 642.31 343.433C655.006 343.24 667.699 342.905 680.387 342.43C680.277 354.033 680.519 365.636 681.117 377.226C681.104 377.424 680.901 377.754 680.796 377.961C678.526 378.265 667.501 377.596 664.5 377.516C645.623 377.01 626.701 375.536 607.858 374.624C601.351 374.312 592.06 374.866 585.377 375.065C574.81 375.381 564.242 375.571 553.675 375.628C553.794 358.58 555.105 338.979 555.773 321.647C557.269 285.882 558.457 250.104 559.341 214.318C559.724 199.685 560.599 185.126 560.305 170.475C559.429 126.17 557.278 81.6679 556.671 37.3777Z" fill="black"/>
</g>
<defs>
<filter id="filter0_d_109_359" x="209.957" y="35.6931" width="165.402" height="350.673" filterUnits="userSpaceOnUse" color-interpolation-filters="sRGB">
<feFlood flood-opacity="0" result="BackgroundImageFix"/>
<feColorMatrix in="SourceAlpha" type="matrix" values="0 0 0 0 0 0 0 0 0 0 0 0 0 0 0 0 0 0 127 0" result="hardAlpha"/>
<feOffset dy="4"/>
<feGaussianBlur stdDeviation="2"/>
<feComposite in2="hardAlpha" operator="out"/>
<feColorMatrix type="matrix" values="0 0 0 0 0 0 0 0 0 0 0 0 0 0 0 0 0 0 0.25 0"/>
<feBlend mode="normal" in2="BackgroundImageFix" result="effect1_dropShadow_109_359"/>
<feBlend mode="normal" in="SourceGraphic" in2="effect1_dropShadow_109_359" result="shape"/>
</filter>
<filter id="filter1_d_109_359" x="18.0635" y="34.3876" width="185.062" height="351.286" filterUnits="userSpaceOnUse" color-interpolation-filters="sRGB">
<feFlood flood-opacity="0" result="BackgroundImageFix"/>
<feColorMatrix in="SourceAlpha" type="matrix" values="0 0 0 0 0 0 0 0 0 0 0 0 0 0 0 0 0 0 127 0" result="hardAlpha"/>
<feOffset dy="4"/>
<feGaussianBlur stdDeviation="2"/>
<feComposite in2="hardAlpha" operator="out"/>
<feColorMatrix type="matrix" values="0 0 0 0 0 0 0 0 0 0 0 0 0 0 0 0 0 0 0.25 0"/>
<feBlend mode="normal" in2="BackgroundImageFix" result="effect1_dropShadow_109_359"/>
<feBlend mode="normal" in="SourceGraphic" in2="effect1_dropShadow_109_359" result="shape"/>
</filter>
<filter id="filter2_d_109_359" x="380.722" y="37.2968" width="161.696" height="350.815" filterUnits="userSpaceOnUse" color-interpolation-filters="sRGB">
<feFlood flood-opacity="0" result="BackgroundImageFix"/>
<feColorMatrix in="SourceAlpha" type="matrix" values="0 0 0 0 0 0 0 0 0 0 0 0 0 0 0 0 0 0 127 0" result="hardAlpha"/>
<feOffset dy="4"/>
<feGaussianBlur stdDeviation="2"/>
<feComposite in2="hardAlpha" operator="out"/>
<feColorMatrix type="matrix" values="0 0 0 0 0 0 0 0 0 0 0 0 0 0 0 0 0 0 0.25 0"/>
<feBlend mode="normal" in2="BackgroundImageFix" result="effect1_dropShadow_109_359"/>
<feBlend mode="normal" in="SourceGraphic" in2="effect1_dropShadow_109_359" result="shape"/>
</filter>
<filter id="filter3_d_109_359" x="549.675" y="37.3777" width="135.442" height="348.662" filterUnits="userSpaceOnUse" color-interpolation-filters="sRGB">
<feFlood flood-opacity="0" result="BackgroundImageFix"/>
<feColorMatrix in="SourceAlpha" type="matrix" values="0 0 0 0 0 0 0 0 0 0 0 0 0 0 0 0 0 0 127 0" result="hardAlpha"/>
<feOffset dy="4"/>
<feGaussianBlur stdDeviation="2"/>
<feComposite in2="hardAlpha" operator="out"/>
<feColorMatrix type="matrix" values="0 0 0 0 0 0 0 0 0 0 0 0 0 0 0 0 0 0 0.25 0"/>
<feBlend mode="normal" in2="BackgroundImageFix" result="effect1_dropShadow_109_359"/>
<feBlend mode="normal" in="SourceGraphic" in2="effect1_dropShadow_109_359" result="shape"/>
</filter>
</defs>
</svg>
