<svg width="72" height="72" viewBox="0 0 72 72" fill="none" xmlns="http://www.w3.org/2000/svg">
<circle cx="36" cy="36" r="36" fill="url(#paint0_linear_443_1218)"/>
<path d="M35.4376 50.5C38.4728 50.5 40.3426 48.3197 40.4911 45.2597L40.5001 44.8548V40.096L45.4951 39.1893C45.6886 39.1533 45.8821 39.1098 46.0756 39.0588C47.8795 38.5765 49.4306 37.4223 50.4108 35.833C51.391 34.2436 51.7261 32.3395 51.3473 30.511L51.2528 30.106L48.8948 21.2815C48.6554 20.3848 48.1741 19.5711 47.5035 18.9294C46.8329 18.2878 45.9987 17.8429 45.0923 17.6433L44.7211 17.5758L39.2806 16.795C38.2702 16.6503 37.2397 16.8143 36.3242 17.2656C35.4087 17.717 34.651 18.4344 34.1506 19.324L33.9706 19.6705L33.9053 19.8123C33.3787 20.9459 32.5869 21.936 31.5968 22.699L31.1626 23.0118L26.9236 25.8355L26.7121 25.9683L26.4938 26.0853L21.1771 28.7313C20.9015 28.8682 20.6686 29.0779 20.5037 29.3377C20.3387 29.5974 20.2479 29.8974 20.2411 30.205C20.1848 32.698 21.2896 34.6218 23.4338 35.695C25.0133 36.4848 27.1126 36.4398 29.7923 35.6568L30.3773 35.479V44.857C30.3751 48.1262 32.2696 50.5 35.4376 50.5ZM35.4376 47.125C34.4026 47.125 33.8356 46.5062 33.7591 45.1765L33.7501 44.857V33.058C33.7503 32.7806 33.6822 32.5074 33.5516 32.2626C33.4211 32.0177 33.2322 31.8089 33.0017 31.6545C32.7712 31.5001 32.5062 31.4049 32.2302 31.3773C31.9541 31.3498 31.6755 31.3907 31.4191 31.4965C28.1341 32.8533 25.9268 33.1683 24.9436 32.6755C24.3721 32.3898 23.9986 32.023 23.7961 31.51L23.7106 31.24L27.9968 29.107L28.4018 28.8888L28.7956 28.6458L33.0346 25.8198C34.5661 24.7949 35.8224 23.4096 36.6931 21.7855L36.9676 21.2365L37.0328 21.0948C37.168 20.8038 37.3833 20.5574 37.6534 20.3845C37.9236 20.2115 38.2375 20.1192 38.5583 20.1183L38.8013 20.1363L44.2418 20.917C44.5272 20.9578 44.7975 21.071 45.0267 21.2459C45.256 21.4208 45.4366 21.6515 45.5513 21.916L45.6323 22.1523L47.9926 30.979C48.1259 31.4787 48.1594 31.9997 48.0913 32.5123C48.0233 33.0249 47.8549 33.5191 47.5958 33.9666C47.3367 34.4142 46.992 34.8063 46.5814 35.1206C46.1708 35.4349 45.7022 35.6653 45.2026 35.7985L45.0473 35.8368L38.5111 37.0293C38.1633 37.0925 37.8442 37.2633 37.5988 37.5177C37.3533 37.772 37.1939 38.097 37.1431 38.4468L37.1251 38.6875V44.857C37.1251 46.4095 36.5536 47.125 35.4376 47.125ZM35.4376 58.375C37.5243 58.3756 39.5802 57.8714 41.4299 56.9055C43.2796 55.9396 44.8682 54.5406 46.0602 52.8279C47.2522 51.1151 48.0123 49.1394 48.2755 47.0694C48.5387 44.9993 48.2973 42.8963 47.5718 40.9398L47.2478 41.059C46.7991 41.2142 46.3424 41.3457 45.8798 41.4528C45.3415 41.5768 44.7948 41.661 44.2441 41.7048C44.907 43.2704 45.1405 44.9845 44.9206 46.6704C44.7006 48.3564 44.0351 49.9532 42.9927 51.2963C41.9502 52.6395 40.5685 53.6804 38.9899 54.3119C37.4113 54.9433 35.6929 55.1425 34.0117 54.8888C32.3305 54.6351 30.7473 53.9378 29.4253 52.8686C28.1033 51.7995 27.0903 50.3972 26.4905 48.8063C25.8908 47.2153 25.7261 45.4933 26.0134 43.8175C26.3008 42.1417 27.0297 40.5728 28.1251 39.2725C27.5014 39.2233 26.8819 39.1308 26.2711 38.9958C25.4813 38.8045 24.9481 38.6133 24.5791 38.404C23.314 40.3571 22.5991 42.6151 22.5097 44.9404C22.4203 47.2657 22.9597 49.572 24.071 51.6164C25.1824 53.6608 26.8246 55.3677 28.8246 56.5571C30.8246 57.7466 33.1083 58.3746 35.4353 58.375" fill="white"/>
<defs>
<linearGradient id="paint0_linear_443_1218" x1="36" y1="72" x2="36" y2="-4.02331e-07" gradientUnits="userSpaceOnUse">
<stop stop-color="#D93C71"/>
<stop offset="1" stop-color="#CC3436"/>
</linearGradient>
</defs>
</svg>
