<svg width="146" height="174" viewBox="0 0 146 174" fill="none" xmlns="http://www.w3.org/2000/svg">
<g filter="url(#filter0_d_2_33)">
<path d="M120.628 54.0489L115.259 61.0698C114.789 61.6841 114.198 62.195 113.522 62.5706C111.439 63.7278 108.853 63.4476 107.066 61.871L102.002 57.4033C101.699 57.1356 101.376 56.8913 101.036 56.6725L94.999 52.7919C94.6979 52.5983 94.3832 52.4268 94.0573 52.2787C91.0818 50.9262 89.3422 47.7854 89.7742 44.5456L89.8288 44.1359C89.9726 43.0575 90.3355 42.0199 90.8953 41.087L92.5401 38.3457C92.8766 37.7848 93.2806 37.2673 93.7431 36.8048L124.205 6.34287C124.592 5.95616 125.25 6.11161 125.423 6.63043C125.5 6.86225 125.458 7.11731 125.309 7.31112L104.047 35.0012L103.123 36.5402C102.801 37.0782 102.957 37.7748 103.479 38.1228C103.83 38.3568 104.28 38.3848 104.657 38.1961L105.501 37.7741C105.861 37.5943 106.177 37.3391 106.43 37.0259L120.474 19.5921C120.522 19.5316 120.576 19.4756 120.635 19.4247C121.785 18.4276 123.42 19.8748 122.57 21.1378L110.547 39.0012L109.135 41.1186C108.793 41.6318 108.861 42.3151 109.297 42.7512C109.733 43.1873 110.416 43.2549 110.929 42.9128L111.285 42.6755C111.458 42.5601 111.61 42.4159 111.734 42.2492L128.888 19.2143C128.992 19.0742 129.128 18.9605 129.284 18.8823C130.309 18.37 131.349 19.548 130.713 20.5011L115.338 43.5648C115.146 43.8529 115.012 44.1759 114.944 44.5155L114.796 45.2552C114.649 45.9908 115.012 46.7339 115.683 47.0694C116.217 47.3364 116.853 47.2968 117.35 46.9656L117.668 46.7534C117.918 46.5868 118.133 46.3734 118.302 46.1249L136.953 18.6393C137.015 18.5477 137.091 18.466 137.177 18.3969L137.654 18.0151C138.298 17.5004 139.233 18.0697 139.071 18.8776C139.055 18.9596 139.027 19.0388 138.988 19.1129L121.366 52.8898C121.153 53.2966 120.907 53.6844 120.628 54.0489Z" fill="url(#paint0_linear_2_33)"/>
<path d="M30.0468 4.00098L59.0468 46.5012L48.0468 42.5012L38.5468 41.0012L31.0468 41.501C31.0468 41.501 25.5467 29.501 23.0467 21.001L23.0464 20.9998C20.5468 12.501 20.5468 12.5008 21.5468 7.50098C22.3069 3.70041 22.1727 1.1176 26.0468 1.00098C28.1489 0.937704 30.0468 4.00098 30.0468 4.00098Z" fill="url(#paint1_linear_2_33)" stroke="black" stroke-width="2"/>
<path d="M81.5468 125.001L83.5468 134.501H91.0468L96.0468 131.501L100.047 128.001L101.047 121.001L100.547 116.001L97.5468 106.001L92.5468 92.5012L82.5468 74.5012L75.5468 63.0012L68.5468 56.0012L55.0468 44.0012L46.0468 41.5012L35.5468 40.0012L25.5468 44.0012L18.5468 52.5012L17.0468 60.5012L18.5468 74.5012L22.0468 85.0012L28.0468 94.5012L32.0468 101.001H37.0468L47.0468 102.001V99.5012L42.0468 94.5012L35.5468 80.5012L33.5468 74.5012L35.5468 68.5012L42.0468 64.5012L52.0468 68.5012L62.5468 78.0012L73.0468 92.5012L77.0468 103.001L81.5468 117.001V125.001Z" fill="url(#paint2_radial_2_33)"/>
<path d="M81.5468 124.001L85.0468 135.001L75.5468 132.001L70.5468 129.001L65.0468 124.501L54.0468 122.001L40.0468 121.001L34.5468 122.001L22.5468 125.001L13.0468 127.001L6.54675 122.001L5.54675 115.001L10.0468 109.001L21.0468 103.001L32.0468 100.501H43.0468L51.5468 103.001L61.5468 106.001L72.0468 113.501L81.5468 124.001Z" fill="url(#paint3_radial_2_33)"/>
<path d="M35.0468 129.001L27.0468 124.001C27.0468 124.001 31.8626 121.983 35.0468 121.501C40.0665 120.742 42.9884 121.069 48.0468 121.501C52.7804 121.906 55.4275 122.391 60.0468 123.501C62.811 124.166 64.6019 124.05 67.0468 125.501C69.4214 126.911 69.7289 129 72.0468 130.501C74.3296 131.979 75.9512 132.189 78.5468 133.001C81.9829 134.076 83.956 135.265 87.5468 135.001C91.8177 134.687 94.6391 133.645 97.5468 130.501C99.6219 128.257 100.468 126.502 101.047 123.501C101.454 121.392 101.367 120.125 101.047 118.001C100.743 115.985 100.153 114.948 99.5468 113.001C96.8285 104.273 95.4754 99.2559 91.5468 91.0012C88.955 85.5554 87.1516 82.6716 84.0468 77.5012C79.6974 70.2584 77.7678 65.7176 72.0468 59.5012C67.0693 54.0928 58.0468 46.5012 58.0468 46.5012C58.0468 46.5012 72.089 45.5058 81.0468 47.5012C85.2657 48.4409 87.6156 49.2044 91.5468 51.0012C97.0636 53.5226 99.9383 55.5572 104.547 59.5012C110.872 64.9146 113.835 68.8198 118.047 76.0012C121.991 82.7256 123.221 87.0604 125.547 94.5012C127.582 101.011 128.347 105.217 129.047 112.001C129.608 117.44 129.547 120.001 128.047 126.001C126.547 132.001 120.547 133.501 120.547 133.501C120.547 133.501 112.175 136.82 106.547 138.501C99.3175 140.66 95.0608 141.321 87.5468 142.001C80.157 142.67 75.9483 142.523 68.5468 142.001C62.4586 141.572 58.5468 141.001 53.0468 140.001C49.949 139.438 48.6419 139.078 45.5468 138.501C43.8192 138.179 41.5468 136.001 41.5468 136.001L40.0468 134.501L35.0468 129.001Z" fill="#FFF3EB" stroke="black" stroke-width="3" stroke-linecap="round"/>
<path d="M46.0468 88.0012L57.0468 104.001H54.5468L46.0468 99.5012L41.5468 93.0012L38.5468 87.0012L35.5468 80.0012L34.5468 71.5012L38.5468 66.0012L46.0468 65.5012L58.5468 73.5012L62.0468 80.0012L53.0468 74.0012L48.0468 75.0012L45.0468 77.5012L44.0468 83.5012L46.0468 88.0012Z" fill="white"/>
<path d="M29.0468 123.501C29.0468 123.501 21.9727 125.577 18.0467 126.001C15.709 126.254 13.8076 126.647 11.5467 126.001C9.77533 125.496 7.54667 123.501 7.54667 123.501C7.54667 123.501 5.82545 120.666 5.54675 118.501C5.23842 116.106 6.54667 112.501 6.54667 112.501C6.54667 112.501 9.81308 107.868 12.5468 106.501C15.2804 105.134 17.0466 104.001 20.0467 103.001C23.0468 102.001 26.4066 101.631 30.5467 101.501C31.7177 101.465 33.5467 101.501 33.5467 101.501M50.4752 103.001C50.4752 103.001 47.5156 101.915 45.5467 101.501C40.9605 100.538 33.5467 101.501 33.5467 101.501M50.4752 103.001C50.4752 103.001 54.519 104.103 57.0467 105.001C61.9043 106.727 64.9678 107.349 69.0467 110.501C71.9984 112.782 75.5467 117.501 75.5467 117.501L80.5467 122.501C80.5467 122.501 80.9993 118.164 79.0467 112.501C77.0941 106.839 75.9993 103.664 74.0467 98.0012C72.0941 92.3386 66.0467 83.5012 66.0467 83.5012C66.0467 83.5012 61.1471 76.516 57.0467 73.0012C53.5103 69.9699 47.0467 66.5012 47.0467 66.5012C47.0467 66.5012 42.2726 64.3608 39.5467 65.5012C37.8859 66.1959 37.1193 67.0553 36.0467 68.5012C33.8089 71.5177 34.1095 74.2708 34.5467 78.0012C34.9351 81.3151 37.5467 86.0012 37.5467 86.0012C37.5467 86.0012 39.4387 90.1082 41.0467 92.5012C42.5945 94.8046 45.5467 98.0012 45.5467 98.0012L50.4752 103.001ZM33.5467 101.501C33.5467 101.501 24.8144 91.2919 21.5467 83.5012C19.2017 77.9105 17.5467 68.5012 17.5467 68.5012C17.5467 68.5012 16.624 59.1193 18.5467 54.0012C20.209 49.5763 21.227 47.7855 25.0467 45.0012C28.2996 42.63 30.6171 41.8744 34.5467 41.0012C39.312 39.9422 43.8003 40.8602 48.5467 42.0012C53.4719 43.1851 58.5467 47.0012 58.5467 47.0012" stroke="black" stroke-width="3" stroke-linecap="round"/>
<path d="M45.5467 87.0012L57.0467 104.501L64.0467 107.501L72.0467 112.501L80.5467 122.001V117.501L78.5467 110.501L71.5467 91.5012L62.5467 79.5012C62.5467 79.5012 58.0468 74.5711 53.0468 74.5012C51.0557 74.4733 48.5495 74.5012 47.5467 75.0012C46.4278 75.559 45.7927 75.9978 45.0467 77.0012C43.7442 78.7532 43.8463 80.3273 44.0467 82.5012C44.2168 84.3458 45.5467 87.0012 45.5467 87.0012Z" fill="black" stroke="black"/>
<path d="M96.5468 76.5012C94.8002 74.9271 93.359 73.7077 92.5468 71.5012C92.2029 70.5668 92.0789 69.9963 92.0468 69.0012C91.9898 67.2345 92.1878 66.6333 92.5468 65.5012C92.9427 64.2526 93.1149 63.9216 94.0468 63.0012C95.1048 61.9562 96.0662 61.6398 97.5468 61.5012C99.15 61.3511 100.126 61.7434 101.547 62.5012C103.252 63.4108 103.845 64.4874 105.047 66.0012C105.922 67.1038 106.462 67.7202 107.047 69.0012C107.715 70.466 108.264 71.4058 108.047 73.0012C107.905 74.043 107.547 74.6678 107.047 75.5012C106.894 75.756 106.647 76.0888 106.379 76.428C105.545 77.4817 104.35 78.1753 103.047 78.5012C102.38 78.6678 100.307 78.5665 99.0468 78.0012C97.9062 77.4892 97.4756 77.3382 96.5468 76.5012Z" fill="white" stroke="black"/>
<path d="M98.5126 72.6529C97.7512 72.0087 97.123 71.5097 96.769 70.6067C96.619 70.2243 96.565 69.9908 96.551 69.5835C96.5261 68.8605 96.6124 68.6145 96.7689 68.1511C96.9415 67.6401 97.0166 67.5047 97.4228 67.128C97.884 66.7003 98.3031 66.5708 98.9486 66.5141C99.6474 66.4527 100.073 66.6133 100.692 66.9234C101.436 67.2956 101.694 67.7362 102.218 68.3558C102.6 68.807 102.835 69.0593 103.09 69.5835C103.381 70.183 103.621 70.5676 103.526 71.2205C103.464 71.6469 103.308 71.9026 103.09 72.2437C103.027 72.3425 102.927 72.47 102.817 72.6012C102.442 73.0493 101.915 73.3379 101.346 73.4714C101.055 73.5396 100.152 73.4982 99.6024 73.2668C99.1052 73.0573 98.9175 72.9955 98.5126 72.6529Z" fill="black" stroke="black"/>
<path d="M119.547 155.001L110.047 138.001L124.547 132.001L138.047 147.001C138.047 147.001 139.631 149.82 139.547 152.001C139.477 153.8 138.143 157.303 137.547 159.001C136.737 161.31 136.047 161.001 135.047 161.501C134.047 162.001 130.841 162.88 128.047 162.001C125.875 161.318 123.047 159.001 123.047 159.001L119.547 155.001Z" fill="url(#paint4_linear_2_33)" stroke="black" stroke-width="2"/>
<path d="M44.55 157.501L54.05 140.501L39.55 134.501L26.05 149.501C26.05 149.501 24.4653 152.32 24.55 154.501C24.6199 156.3 25.9539 159.803 26.55 161.501C27.3602 163.81 28.05 163.501 29.05 164.001C30.05 164.501 33.2562 165.38 36.05 164.501C38.2222 163.818 41.05 161.501 41.05 161.501L44.55 157.501Z" fill="url(#paint5_linear_2_33)" stroke="black" stroke-width="2"/>
<path d="M110.047 64.0012C110.047 64.0012 112.943 63.0623 114.547 62.0012C117.804 59.8463 120.547 54.0012 120.547 54.0012L139.982 18.1199C140.025 18.041 140.058 17.9572 140.079 17.8702C140.369 16.7112 138.828 16.0232 138.158 17.013L118.064 46.7355C117.741 47.2143 117.2 47.5012 116.622 47.5012C115.963 47.5012 115.361 47.1287 115.066 46.539L115.027 46.4618C114.729 45.8665 114.769 45.1582 115.13 44.5995L136.468 11.623C136.52 11.5426 136.555 11.4525 136.571 11.3581C136.691 10.6341 135.757 10.2369 135.32 10.8262L111.446 42.964C111.195 43.3019 110.799 43.5012 110.378 43.5012H110.047C109.494 43.5012 109.047 43.0535 109.047 42.5012" stroke="black" stroke-width="2"/>
<path d="M89.0467 49.0012C89.0467 49.0012 89.1859 45.4168 89.7059 43.5654C90.7618 39.8056 95.4883 35.4068 95.4883 35.4068L123.709 5.93138C123.771 5.86663 123.841 5.80995 123.917 5.76266C124.932 5.13242 126.059 6.38991 125.321 7.32958L103.165 35.5488C102.808 36.0034 102.7 36.6055 102.877 37.1558C103.078 37.7835 103.617 38.2435 104.269 38.3439L104.354 38.357C105.012 38.4584 105.674 38.2045 106.096 37.6895L130.97 7.29124C131.03 7.21718 131.105 7.15635 131.19 7.11251C131.843 6.77626 132.506 7.54408 132.079 8.14097L108.972 40.4286C108.606 40.9401 108.503 41.5946 108.696 42.1934C108.888 42.7926 109.353 43.2652 109.949 43.4678L110.047 43.5012" stroke="black" stroke-width="2"/>
</g>
<defs>
<filter id="filter0_d_2_33" x="0" y="0" width="146.527" height="173.876" filterUnits="userSpaceOnUse" color-interpolation-filters="sRGB">
<feFlood flood-opacity="0" result="BackgroundImageFix"/>
<feColorMatrix in="SourceAlpha" type="matrix" values="0 0 0 0 0 0 0 0 0 0 0 0 0 0 0 0 0 0 127 0" result="hardAlpha"/>
<feOffset dy="4"/>
<feGaussianBlur stdDeviation="2"/>
<feComposite in2="hardAlpha" operator="out"/>
<feColorMatrix type="matrix" values="0 0 0 0 0 0 0 0 0 0 0 0 0 0 0 0 0 0 0.25 0"/>
<feBlend mode="normal" in2="BackgroundImageFix" result="effect1_dropShadow_2_33"/>
<feBlend mode="normal" in="SourceGraphic" in2="effect1_dropShadow_2_33" result="shape"/>
</filter>
<linearGradient id="paint0_linear_2_33" x1="98.5468" y1="17.0012" x2="123.234" y2="47.1255" gradientUnits="userSpaceOnUse">
<stop stop-color="#B5B5B5"/>
<stop offset="1" stop-color="#4F4F4F"/>
</linearGradient>
<linearGradient id="paint1_linear_2_33" x1="39.5468" y1="19.5012" x2="24.6527" y2="32.2965" gradientUnits="userSpaceOnUse">
<stop stop-color="#B5B5B5"/>
<stop offset="1" stop-color="#4F4F4F"/>
</linearGradient>
<radialGradient id="paint2_radial_2_33" cx="0" cy="0" r="1" gradientUnits="userSpaceOnUse" gradientTransform="translate(54.5468 91.0012) rotate(52.0013) scale(40.6079 36.0959)">
<stop stop-color="#8B470B"/>
<stop offset="1" stop-color="#F1A96A"/>
</radialGradient>
<radialGradient id="paint3_radial_2_33" cx="0" cy="0" r="1" gradientUnits="userSpaceOnUse" gradientTransform="translate(45.5468 125.501) rotate(99.4623) scale(15.2069 35.042)">
<stop stop-color="#8B470B"/>
<stop offset="1" stop-color="#F1A96A"/>
</radialGradient>
<linearGradient id="paint4_linear_2_33" x1="133.047" y1="139.501" x2="117.547" y2="156.001" gradientUnits="userSpaceOnUse">
<stop stop-color="#B5B5B5"/>
<stop offset="1" stop-color="#4F4F4F"/>
</linearGradient>
<linearGradient id="paint5_linear_2_33" x1="31.05" y1="142.001" x2="46.55" y2="158.501" gradientUnits="userSpaceOnUse">
<stop stop-color="#B5B5B5"/>
<stop offset="1" stop-color="#4F4F4F"/>
</linearGradient>
</defs>
</svg>
